<svg xmlns="http://www.w3.org/2000/svg" width="68" height="58.791" viewBox="0 0 68 58.791"><defs><style>.a{fill:#e8e8e8;}.b{fill:#fff;}.b,.c,.e{stroke:#adadad;stroke-miterlimit:10;}.c,.e{fill:none;}.c{stroke-linecap:round;}.d{fill:#f2f2f2;}</style></defs><g transform="translate(0 -0.209)"><ellipse class="a" cx="34" cy="4.5" rx="34" ry="4.5" transform="translate(0 50)"/><path class="b" d="M4.639,0h43.99l5.252,13.767v14.68a4,4,0,0,1-4,4H4a4,4,0,0,1-4-4V13.767Z" transform="translate(7.112 21.553)"/><path class="c" d="M.5,14V0" transform="translate(34.037 0.709)"/><path class="c" d="M.5,7V0" transform="matrix(0.966, -0.259, 0.259, 0.966, 23.549, 8.386)"/><path class="c" d="M.5,7V0" transform="matrix(0.966, 0.259, -0.259, 0.966, 44.958, 7.933)"/><path class="d" d="M4.156,0h43.3L52.41,12.783H37.646c-1.8,0-5.1,7.537-7.74,7.537H21.419c-1.446,0-3.314-6.034-7.583-7.537,0,.217-13.835,0-13.835,0Z" transform="translate(7.844 22)"/><path class="e" d="M0,0H13.9a4,4,0,0,1,3.347,1.81l2.384,3.645a4,4,0,0,0,3.347,1.81h7.307a4,4,0,0,0,3.487-2.039L35.56,2.039A4,4,0,0,1,39.046,0H53.681" transform="translate(7.114 35.32)"/></g></svg>