<svg xmlns="http://www.w3.org/2000/svg" xmlns:xlink="http://www.w3.org/1999/xlink" width="86" height="89.01" viewBox="0 0 86 89.01"><defs><style>.a,.e,.f,.j,.m{fill:#fff;}.a,.d{stroke:#707070;}.b{clip-path:url(#a);}.c,.h,.k{fill:#d4f9f5;}.c,.e,.f,.g,.h,.i,.j,.l{stroke:#595959;}.c,.e,.h,.i,.j,.l{stroke-linecap:round;}.c,.e,.h,.j,.l{stroke-linejoin:round;}.c,.g,.h,.j{stroke-miterlimit:10;}.d,.g,.i,.l,.o{fill:none;}.f,.g,.h,.i{stroke-width:0.8px;}.n{stroke:none;}</style><clipPath id="a"><ellipse class="a" cx="43" cy="42.34" rx="43" ry="42.34"/></clipPath></defs><g transform="translate(-44 -118.5)"><g class="b" transform="translate(44 118.5)"><g transform="translate(11.137 59.036)"><g transform="translate(0 0)"><path class="c" d="M6.852,21.223S14.892,0,30.863,0,54.707,22.147,54.707,22.147s-8.158,4.39-23.844,4.39S6.852,21.223,6.852,21.223Z" transform="translate(-6.852 0)"/></g></g></g><g class="d" transform="translate(44 122.5)"><ellipse class="n" cx="41.5" cy="40.34" rx="41.5" ry="40.34"/><ellipse class="o" cx="41.5" cy="40.34" rx="41" ry="39.84"/></g><g transform="translate(124.995 166.971) rotate(91)"><path class="e" d="M.514,21.7a17.478,17.478,0,1,1,5.811,9.257" transform="translate(0 6.076) rotate(-10)"/></g><g transform="translate(93.772 180.576)"><rect class="f" width="21.51" height="13.019" rx="2"/><g transform="translate(2.101 3.396)"><ellipse class="g" cx="1.502" cy="1.502" rx="1.502" ry="1.502" transform="translate(1.066 0)"/><path class="h" d="M0,1.342A4.187,4.187,0,0,1,2.569,0,4.33,4.33,0,0,1,5.174,1.342a5.228,5.228,0,0,1-2.605.911A5.026,5.026,0,0,1,0,1.342Z" transform="translate(0 3.845)"/></g><line class="i" x2="4.862" transform="translate(9.818 4.747)"/><line class="i" x2="9.17" transform="translate(9.818 6.449)"/><line class="i" x2="8.198" transform="translate(9.818 8.151)"/></g><g transform="translate(57.731 120.352)"><path class="j" d="M86.657,406.227l33.334-5.587.721,2.528,1.839,16.793a15.406,15.406,0,0,1-.689,6.854,20.59,20.59,0,0,1-2.827,5.034,15.487,15.487,0,0,1-10.007,5.433,15.651,15.651,0,0,1-1.927.115c-7.84-.02-14.931-5.741-15.891-13.522l-.467-2.009L89,422.078c-.187.022.187,0,0,0-2.3,0-3.163-1.317-3.444-3.6-.067-1.325-.313-3.664,3.452-4.575Z" transform="translate(-85.071 -382.522)"/><path class="k" d="M24.619,9.213,4.46,13.908A4.378,4.378,0,0,0,.636,19.291L3.821,32.051l2,1.487L4.41,28.945c-.3-2.423.453-4.34,2.934-4.812l29.05-3.592c2.656-.328,4.892-3.546,5.441-7.828.528-4.12-.652-9.6-5.518-12.213-2.077,3-4.367,6.149-8.88,7.947A13.056,13.056,0,0,1,24.619,9.213Z" transform="translate(-0.5 -0.5)"/><g transform="translate(17.884 38.758)"><g transform="translate(0 0)"><path class="l" d="M254.071,819.944a5.339,5.339,0,0,1-5.077,5.587,5.723,5.723,0,0,1-6.485-4.5l-.151-1.089a1.629,1.629,0,0,1,.409-1.312,2.053,2.053,0,0,1,1.333-.669l7.582-.827a2.17,2.17,0,0,1,1.476.364,1.725,1.725,0,0,1,.754,1.184l.149,1.091C254.067,819.826,254.07,819.883,254.071,819.944Z" transform="translate(-242.344 -817.117)"/></g></g><g transform="translate(26.677 29.901)"><path class="l" d="M179,631.858a3.859,3.859,0,0,1,5.41-.665" transform="translate(-179 -630.379)"/></g><g transform="translate(13.399 31.552)"><path class="l" d="M485.52,666.67a3.859,3.859,0,0,1,5.411-.664" transform="translate(-485.52 -665.191)"/></g><path class="m" d="M93.7,157.857s5.958-3.966,4.721-9.666c0,0,2.144,4.725,1.667,6.83,0,0,5.056-6.4,3.98-12.1,0,0,4.225,9.437-.147,13.673Z" transform="translate(-68.67 -136.471)"/><path class="l" d="M24.619,9.213,4.46,13.908A4.378,4.378,0,0,0,.636,19.291L3.821,32.051l2,1.487L4.41,28.945c-.3-2.423.453-4.34,2.934-4.812l29.05-3.592c2.656-.328,4.892-3.546,5.441-7.828.528-4.12-.652-9.6-5.518-12.213-2.077,3-4.367,6.149-8.88,7.947A13.056,13.056,0,0,1,24.619,9.213Z" transform="translate(-0.5 -0.5)"/></g></g></svg>