<svg xmlns="http://www.w3.org/2000/svg" width="126" height="86.509" viewBox="0 0 126 86.509">
  <g id="Group_20445" data-name="Group 20445" transform="translate(-600.062 -1391.319)">
    <g id="Grupo_17913" data-name="Grupo 17913" transform="translate(651.562 1391.319)">
      <path id="Path_13493" data-name="Path 13493" d="M644.09,1426.756a5.843,5.843,0,0,1,6.939,0,1.491,1.491,0,1,0,1.8-2.378l-.021-.016a8.9,8.9,0,0,0-5.248-1.73,8.783,8.783,0,0,0-5.248,1.73,1.491,1.491,0,1,0,1.779,2.394h0m-2.784-4.606a11.95,11.95,0,0,1,12.5,0,1.491,1.491,0,1,0,1.563-2.539h0a14.934,14.934,0,0,0-15.632,0,1.491,1.491,0,1,0,1.564,2.539m-2.829-4.608a18.08,18.08,0,0,1,18.166,0,1.493,1.493,0,0,0,1.511-2.576,21.078,21.078,0,0,0-21.186,0,1.493,1.493,0,0,0,1.509,2.576" transform="translate(-636.249 -1412.111)" fill="#ff6354"/>
      <circle id="Elipse_470" data-name="Elipse 470" cx="1.677" cy="1.677" r="1.677" transform="translate(9.633 15.888)" fill="#ff6354"/>
    </g>
    <g id="Group_16261-2" data-name="Group 16261-2" transform="translate(605.779 1417.456)">
      <g id="Group_16227-2" data-name="Group 16227-2">
        <path id="Path_13427-2" data-name="Path 13427-2" d="M611.467,1434.187a4.415,4.415,0,0,0,3.134,3.149l1.662.444-1.662.444a4.415,4.415,0,0,0-3.134,3.149l-.446,1.724-.446-1.724a4.415,4.415,0,0,0-3.134-3.149l-1.662-.444,1.662-.444a4.415,4.415,0,0,0,3.134-3.149l.446-1.724Zm-.446,5.813a2.217,2.217,0,0,0,0-4.434,2.217,2.217,0,0,0,0,4.434Z" transform="translate(-605.779 -1432.463)" fill="#ff6d5a"/>
      </g>
    </g>
    <g id="Group_16261" data-name="Group 16261" transform="translate(711.397 1417.817)">
      <g id="Group_16227" data-name="Group 16227">
        <path id="Path_13427" data-name="Path 13427" d="M716.085,1421.548a4.417,4.417,0,0,0,3.134,3.149l1.662.444-1.662.444a4.415,4.415,0,0,0-3.134,3.149l-.446,1.724-.446-1.724a4.415,4.415,0,0,0-3.134-3.149l-1.662-.444,1.662-.444a4.415,4.415,0,0,0,3.134-3.149l.446-1.724Zm-.446,5.813a2.217,2.217,0,0,0,0-4.434,2.217,2.217,0,0,0,0,4.434Z" transform="translate(-710.397 -1419.824)" fill="#121212"/>
      </g>
    </g>
    <g id="Group_16261-3" data-name="Group 16261-3" transform="translate(699.461 1406.057)">
      <g id="Group_16227-3" data-name="Group 16227-3">
        <path id="Path_13427-3" data-name="Path 13427-3" d="M704.487,1416.281a3.127,3.127,0,0,0,2.218,2.229l1.176.314-1.176.314a3.124,3.124,0,0,0-2.218,2.229l-.316,1.22-.316-1.22a3.122,3.122,0,0,0-2.218-2.229l-1.176-.314,1.176-.314a3.124,3.124,0,0,0,2.218-2.229l.316-1.22Zm-.316,4.114a1.569,1.569,0,0,0,0-3.138,1.569,1.569,0,0,0,0,3.138Z" transform="translate(-700.461 -1415.061)" fill="#121212"/>
      </g>
    </g>
    <g id="Group_20467" data-name="Group 20467" transform="translate(619.014 1451.298)">
      <path id="Path_31280" data-name="Path 31280" d="M-1652.241,8037.186s-8.475,27.247-7.407,25.978,12.262-25.43,12.262-25.43" transform="translate(1659.741 -8037.186)" fill="#fff" stroke="#121212" stroke-linecap="round" stroke-linejoin="round" stroke-width="1"/>
      <path id="Path_31281" data-name="Path 31281" d="M-1266.38,8037.186s8.475,27.247,7.407,25.978-12.5-25.43-12.5-25.43" transform="translate(1346.116 -8037.186)" fill="#fff" stroke="#121212" stroke-linecap="round" stroke-linejoin="round" stroke-width="1"/>
    </g>
    <g id="Group_20468" data-name="Group 20468" transform="translate(600.562 1413.298)">
      <path id="Trazado_13612-2" data-name="Trazado 13612-2" d="M626.364,1448.243a41.642,41.642,0,0,1,73.861-.184s-17.713-.714-37.713-.738C638.512,1447.292,626.364,1448.243,626.364,1448.243Z" transform="translate(-600.864 -1425.749)" fill="#fff" stroke="#121212" stroke-linecap="round" stroke-linejoin="bevel" stroke-width="1"/>
      <path id="Trazado_13613-2" data-name="Trazado 13613-2" d="M603.468,1459.995c0,8.277,26.681,12.52,59.594,12.52s59.594-4.242,59.594-12.52a4.971,4.971,0,0,0-1.451-3.288h1.451l-20.216-7.961a197.844,197.844,0,0,0-39.378-3.739,193.913,193.913,0,0,0-39.359,3.739l-20.216,7.965h6.5a22.887,22.887,0,0,0-3.165,1.348,1.806,1.806,0,0,1-2.466-.652A4.524,4.524,0,0,0,603.468,1459.995Z" transform="translate(-600.562 -1425.749)" fill="#fff" stroke="#121212" stroke-linecap="round" stroke-linejoin="bevel" stroke-width="1"/>
      <path id="Rect치ngulo_6628-2" data-name="Rect치ngulo 6628-2" d="M725.562,1460.262h0a3.556,3.556,0,0,1-3.556,3.556H604.118a3.556,3.556,0,0,1-3.556-3.556h0a3.556,3.556,0,0,1,3.556-3.555H722.006A3.556,3.556,0,0,1,725.562,1460.262Z" transform="translate(-600.562 -1425.749)" fill="#fff" stroke="#121212" stroke-linecap="round" stroke-linejoin="bevel" stroke-width="1"/>
      <path id="Rect치ngulo_6629-2" data-name="Rect치ngulo 6629-2" d="M684.808,1471.847h0a5.823,5.823,0,0,1-5.823,5.823H647.139a5.823,5.823,0,0,1-5.823-5.823h43.492Z" transform="translate(-600.562 -1425.749)" fill="#fff" stroke="#121212" stroke-linecap="round" stroke-linejoin="bevel" stroke-width="1"/>
      <g id="Grupo_16460-2" data-name="Grupo 16460-2" transform="translate(6.73 32.066)">
        <g id="Grupo_16450-2" data-name="Grupo 16450-2" transform="translate(106.648)">
          <g id="Trazado_13614-2" data-name="Trazado 13614-2">
            <path id="Path_31257" data-name="Path 31257" d="M714.44,1460.261a1.947,1.947,0,1,1,1.947,1.947A1.948,1.948,0,0,1,714.44,1460.261Z" transform="translate(-713.94 -1457.815)" fill="#fff"/>
            <path id="Path_31258" data-name="Path 31258" d="M716.387,1458.815a1.447,1.447,0,1,0,1.446,1.446,1.448,1.448,0,0,0-1.446-1.446m2.446,1.446a2.447,2.447,0,1,1-2.446-2.446A2.446,2.446,0,0,1,718.833,1460.261Z" transform="translate(-713.94 -1457.815)" fill="#121212"/>
          </g>
        </g>
        <g id="Grupo_16451-2" data-name="Grupo 16451-2" transform="translate(94.72)">
          <g id="Trazado_13615-2" data-name="Trazado 13615-2">
            <path id="Path_31259" data-name="Path 31259" d="M702.512,1460.261a1.946,1.946,0,1,1,1.946,1.947A1.948,1.948,0,0,1,702.512,1460.261Z" transform="translate(-702.012 -1457.815)" fill="#fff"/>
            <path id="Path_31260" data-name="Path 31260" d="M704.458,1458.815a1.447,1.447,0,1,0,1.446,1.446,1.447,1.447,0,0,0-1.446-1.446m2.446,1.446a2.446,2.446,0,1,1-2.446-2.446A2.446,2.446,0,0,1,706.9,1460.261Z" transform="translate(-702.012 -1457.815)" fill="#121212"/>
          </g>
        </g>
        <g id="Grupo_16452-2" data-name="Grupo 16452-2" transform="translate(82.948)">
          <g id="Trazado_13616-2" data-name="Trazado 13616-2">
            <path id="Path_31261" data-name="Path 31261" d="M690.74,1460.261a1.947,1.947,0,1,1,1.947,1.947A1.949,1.949,0,0,1,690.74,1460.261Z" transform="translate(-690.24 -1457.815)" fill="#fff"/>
            <path id="Path_31262" data-name="Path 31262" d="M692.687,1458.815a1.447,1.447,0,1,0,1.446,1.446,1.448,1.448,0,0,0-1.446-1.446m2.446,1.446a2.447,2.447,0,1,1-2.446-2.446A2.446,2.446,0,0,1,695.133,1460.261Z" transform="translate(-690.24 -1457.815)" fill="#121212"/>
          </g>
        </g>
        <g id="Grupo_16453-2" data-name="Grupo 16453-2" transform="translate(71.099)">
          <g id="Trazado_13617-2" data-name="Trazado 13617-2">
            <path id="Path_31263" data-name="Path 31263" d="M678.891,1460.261a1.947,1.947,0,1,1,1.947,1.947A1.949,1.949,0,0,1,678.891,1460.261Z" transform="translate(-678.391 -1457.815)" fill="#fff"/>
            <path id="Path_31264" data-name="Path 31264" d="M680.838,1458.815a1.447,1.447,0,1,0,1.446,1.446,1.448,1.448,0,0,0-1.446-1.446m2.446,1.446a2.447,2.447,0,1,1-2.446-2.446A2.446,2.446,0,0,1,683.284,1460.261Z" transform="translate(-678.391 -1457.815)" fill="#121212"/>
          </g>
        </g>
        <g id="Grupo_16454-2" data-name="Grupo 16454-2" transform="translate(59.249)">
          <g id="Trazado_13618-2" data-name="Trazado 13618-2">
            <path id="Path_31265" data-name="Path 31265" d="M667.041,1460.261a1.947,1.947,0,1,1,1.947,1.947A1.949,1.949,0,0,1,667.041,1460.261Z" transform="translate(-666.541 -1457.815)" fill="#fff"/>
            <path id="Path_31266" data-name="Path 31266" d="M668.988,1458.815a1.447,1.447,0,1,0,1.446,1.446,1.448,1.448,0,0,0-1.446-1.446m2.446,1.446a2.447,2.447,0,1,1-2.446-2.446A2.446,2.446,0,0,1,671.434,1460.261Z" transform="translate(-666.541 -1457.815)" fill="#121212"/>
          </g>
        </g>
        <g id="Grupo_16455-2" data-name="Grupo 16455-2" transform="translate(47.399)">
          <g id="Trazado_13619-2" data-name="Trazado 13619-2">
            <path id="Path_31267" data-name="Path 31267" d="M655.191,1460.261a1.947,1.947,0,1,1,1.947,1.947A1.949,1.949,0,0,1,655.191,1460.261Z" transform="translate(-654.691 -1457.815)" fill="#fff"/>
            <path id="Path_31268" data-name="Path 31268" d="M657.138,1458.815a1.447,1.447,0,1,0,1.446,1.446,1.448,1.448,0,0,0-1.446-1.446m2.446,1.446a2.447,2.447,0,1,1-2.446-2.446A2.446,2.446,0,0,1,659.584,1460.261Z" transform="translate(-654.691 -1457.815)" fill="#121212"/>
          </g>
        </g>
        <g id="Grupo_16456-2" data-name="Grupo 16456-2" transform="translate(35.55)">
          <g id="Trazado_13620-2" data-name="Trazado 13620-2">
            <path id="Path_31269" data-name="Path 31269" d="M643.342,1460.261a1.947,1.947,0,1,1,1.947,1.947A1.949,1.949,0,0,1,643.342,1460.261Z" transform="translate(-642.842 -1457.815)" fill="#fff"/>
            <path id="Path_31270" data-name="Path 31270" d="M645.289,1458.815a1.447,1.447,0,1,0,1.446,1.446,1.448,1.448,0,0,0-1.446-1.446m2.446,1.446a2.447,2.447,0,1,1-2.446-2.446A2.446,2.446,0,0,1,647.735,1460.261Z" transform="translate(-642.842 -1457.815)" fill="#121212"/>
          </g>
        </g>
        <g id="Grupo_16457-2" data-name="Grupo 16457-2" transform="translate(23.7)">
          <g id="Trazado_13621-2" data-name="Trazado 13621-2">
            <path id="Path_31271" data-name="Path 31271" d="M631.492,1460.261a1.947,1.947,0,1,1,1.946,1.947A1.948,1.948,0,0,1,631.492,1460.261Z" transform="translate(-630.992 -1457.815)" fill="#fff"/>
            <path id="Path_31272" data-name="Path 31272" d="M633.438,1458.815a1.447,1.447,0,1,0,1.447,1.446,1.448,1.448,0,0,0-1.447-1.446m2.447,1.446a2.447,2.447,0,1,1-2.447-2.446A2.446,2.446,0,0,1,635.885,1460.261Z" transform="translate(-630.992 -1457.815)" fill="#121212"/>
          </g>
        </g>
        <g id="Grupo_16458-2" data-name="Grupo 16458-2" transform="translate(11.929)">
          <g id="Trazado_13622-2" data-name="Trazado 13622-2">
            <path id="Path_31273" data-name="Path 31273" d="M619.721,1460.261a1.947,1.947,0,1,1,1.947,1.947A1.949,1.949,0,0,1,619.721,1460.261Z" transform="translate(-619.221 -1457.815)" fill="#fff"/>
            <path id="Path_31274" data-name="Path 31274" d="M621.668,1458.815a1.447,1.447,0,1,0,1.446,1.446,1.448,1.448,0,0,0-1.446-1.446m2.446,1.446a2.447,2.447,0,1,1-2.446-2.446A2.446,2.446,0,0,1,624.114,1460.261Z" transform="translate(-619.221 -1457.815)" fill="#121212"/>
          </g>
        </g>
        <g id="Grupo_16459-2" data-name="Grupo 16459-2">
          <g id="Trazado_13623-2" data-name="Trazado 13623-2">
            <path id="Path_31275" data-name="Path 31275" d="M607.792,1460.261a1.947,1.947,0,1,1,1.947,1.947A1.949,1.949,0,0,1,607.792,1460.261Z" transform="translate(-607.292 -1457.815)" fill="#fff"/>
            <path id="Path_31276" data-name="Path 31276" d="M609.739,1458.815a1.447,1.447,0,1,0,1.446,1.446,1.448,1.448,0,0,0-1.446-1.446m2.446,1.446a2.447,2.447,0,1,1-2.446-2.446A2.446,2.446,0,0,1,612.185,1460.261Z" transform="translate(-607.292 -1457.815)" fill="#121212"/>
          </g>
        </g>
      </g>
    </g>
  </g>
</svg>
