<svg xmlns="http://www.w3.org/2000/svg" width="297.313" height="172.881" viewBox="0 0 297.313 172.881"><defs><style>.a{fill:#ccc;stroke:#ccc;}.b,.d,.e,.j,.k,.l,.n{fill:none;}.b,.c,.d,.e,.f,.g,.h,.j,.k{stroke:#121212;}.b,.d,.e,.f,.g,.j,.k,.l{stroke-linecap:round;}.b,.d,.f,.l{stroke-miterlimit:10;}.b,.c,.d,.e,.f,.g,.h,.j{stroke-width:3px;}.c,.f,.g,.h,.i{fill:#f2f2f2;}.c,.d,.e,.f,.j,.k{stroke-linejoin:round;}.c,.e{fill-rule:evenodd;}.k{stroke-width:2px;}.l{stroke:#6aff99;stroke-width:6px;}.m{stroke:none;}</style></defs><g transform="translate(-31.5 -156.507)"><g transform="translate(-3712.493 -4146.568)"><g transform="translate(4038.774 4316.568)"><path class="a" d="M6280.493,5646.52a1.016,1.016,0,1,1,1.03,1h-.014a1.008,1.008,0,0,1-1.016-1Z" transform="translate(-6280.493 -5491.281)"/><path class="a" d="M6280.493,5525.691a1.016,1.016,0,1,1,1.03,1h-.014a1.009,1.009,0,0,1-1.016-1Z" transform="translate(-6280.493 -5384.473)"/><path class="a" d="M6280.493,5404.862a1.016,1.016,0,1,1,1.03,1h-.014a1.009,1.009,0,0,1-1.016-1Z" transform="translate(-6280.493 -5277.665)"/><path class="a" d="M6280.493,5284.033a1.016,1.016,0,1,1,1.03,1h-.014a1.008,1.008,0,0,1-1.016-1Z" transform="translate(-6280.493 -5170.857)"/><path class="a" d="M6280.493,5163.2a1.016,1.016,0,1,1,1.03,1h-.014a1.009,1.009,0,0,1-1.016-1Z" transform="translate(-6280.493 -5064.05)"/><path class="a" d="M6280.5,5042.511a1.015,1.015,0,1,1,1.014,1.016,1.016,1.016,0,0,1-1.014-1.016Z" transform="translate(-6280.493 -4957.414)"/><path class="a" d="M6280.493,4921.547a1.016,1.016,0,1,1,1.03,1h-.014a1.009,1.009,0,0,1-1.016-1Z" transform="translate(-6280.493 -4850.435)"/><path class="a" d="M6280.493,4800.718a1.016,1.016,0,1,1,1.03,1h-.014a1.009,1.009,0,0,1-1.016-1Z" transform="translate(-6280.493 -4743.627)"/><path class="a" d="M6280.5,4680.025a1.015,1.015,0,1,1,1.014,1.016,1.016,1.016,0,0,1-1.014-1.016Z" transform="translate(-6280.493 -4636.991)"/><path class="a" d="M6280.493,4559.061a1.016,1.016,0,1,1,1.03,1h-.014a1.009,1.009,0,0,1-1.016-1Z" transform="translate(-6280.493 -4530.012)"/><path class="a" d="M6280.493,4438.232a1.016,1.016,0,1,1,1.03,1h-.014a1.009,1.009,0,0,1-1.016-1Z" transform="translate(-6280.493 -4423.204)"/><path class="a" d="M6280.5,4317.539a1.015,1.015,0,1,1,1.014,1.016,1.016,1.016,0,0,1-1.014-1.016Z" transform="translate(-6280.493 -4316.568)"/></g><g transform="translate(4024.059 4316.568)"><path class="a" d="M6153.693,5646.52a1.016,1.016,0,1,1,1.03,1h-.014a1.008,1.008,0,0,1-1.016-1Z" transform="translate(-6153.693 -5491.281)"/><path class="a" d="M6153.693,5525.691a1.016,1.016,0,1,1,1.03,1h-.014a1.008,1.008,0,0,1-1.016-1Z" transform="translate(-6153.693 -5384.473)"/><path class="a" d="M6153.693,5404.862a1.016,1.016,0,1,1,1.03,1h-.014a1.009,1.009,0,0,1-1.016-1Z" transform="translate(-6153.693 -5277.665)"/><path class="a" d="M6153.693,5284.033a1.016,1.016,0,1,1,1.03,1h-.014a1.008,1.008,0,0,1-1.016-1Z" transform="translate(-6153.693 -5170.857)"/><path class="a" d="M6153.693,5163.2a1.016,1.016,0,1,1,1.03,1h-.014a1.009,1.009,0,0,1-1.016-1Z" transform="translate(-6153.693 -5064.05)"/><path class="a" d="M6153.7,5042.511a1.015,1.015,0,1,1,1.014,1.016,1.016,1.016,0,0,1-1.014-1.016Z" transform="translate(-6153.693 -4957.414)"/><path class="a" d="M6153.693,4921.547a1.016,1.016,0,1,1,1.03,1h-.014a1.009,1.009,0,0,1-1.016-1Z" transform="translate(-6153.693 -4850.435)"/><path class="a" d="M6153.693,4800.718a1.016,1.016,0,1,1,1.03,1h-.014a1.008,1.008,0,0,1-1.016-1Z" transform="translate(-6153.693 -4743.627)"/><path class="a" d="M6153.7,4680.025a1.015,1.015,0,1,1,1.014,1.016,1.016,1.016,0,0,1-1.014-1.016Z" transform="translate(-6153.693 -4636.991)"/><path class="a" d="M6153.693,4559.061a1.016,1.016,0,1,1,1.03,1h-.014a1.009,1.009,0,0,1-1.016-1Z" transform="translate(-6153.693 -4530.012)"/><path class="a" d="M6153.693,4438.232a1.016,1.016,0,1,1,1.03,1h-.014a1.009,1.009,0,0,1-1.016-1Z" transform="translate(-6153.693 -4423.204)"/><path class="a" d="M6153.7,4317.539a1.015,1.015,0,1,1,1.014,1.016,1.016,1.016,0,0,1-1.014-1.016Z" transform="translate(-6153.693 -4316.568)"/></g><g transform="translate(4009.345 4316.568)"><path class="a" d="M6026.894,5646.52a1.016,1.016,0,1,1,1.029,1h-.014a1.008,1.008,0,0,1-1.016-1Z" transform="translate(-6026.894 -5491.281)"/><path class="a" d="M6026.894,5525.691a1.016,1.016,0,1,1,1.029,1h-.014a1.008,1.008,0,0,1-1.016-1Z" transform="translate(-6026.894 -5384.473)"/><path class="a" d="M6026.894,5404.862a1.016,1.016,0,1,1,1.029,1h-.014a1.009,1.009,0,0,1-1.016-1Z" transform="translate(-6026.894 -5277.665)"/><path class="a" d="M6026.894,5284.033a1.016,1.016,0,1,1,1.029,1h-.014a1.008,1.008,0,0,1-1.016-1Z" transform="translate(-6026.894 -5170.857)"/><path class="a" d="M6026.894,5163.2a1.016,1.016,0,1,1,1.029,1h-.014a1.009,1.009,0,0,1-1.016-1Z" transform="translate(-6026.894 -5064.05)"/><path class="a" d="M6026.9,5042.511a1.015,1.015,0,1,1,1.014,1.016,1.016,1.016,0,0,1-1.014-1.016Z" transform="translate(-6026.894 -4957.414)"/><path class="a" d="M6026.894,4921.547a1.016,1.016,0,1,1,1.029,1h-.014a1.009,1.009,0,0,1-1.016-1Z" transform="translate(-6026.894 -4850.435)"/><path class="a" d="M6026.894,4800.718a1.016,1.016,0,1,1,1.029,1h-.014a1.008,1.008,0,0,1-1.016-1Z" transform="translate(-6026.894 -4743.627)"/><path class="a" d="M6026.9,4680.025a1.015,1.015,0,1,1,1.014,1.016,1.016,1.016,0,0,1-1.014-1.016Z" transform="translate(-6026.894 -4636.991)"/><path class="a" d="M6026.894,4559.061a1.016,1.016,0,1,1,1.029,1h-.014a1.009,1.009,0,0,1-1.016-1Z" transform="translate(-6026.894 -4530.012)"/><path class="a" d="M6026.894,4438.232a1.016,1.016,0,1,1,1.029,1h-.014a1.009,1.009,0,0,1-1.016-1Z" transform="translate(-6026.894 -4423.204)"/><path class="a" d="M6026.9,4317.539a1.015,1.015,0,1,1,1.014,1.016,1.015,1.015,0,0,1-1.014-1.016Z" transform="translate(-6026.894 -4316.568)"/></g><g transform="translate(3994.632 4316.568)"><path class="a" d="M5900.094,5525.691a1.016,1.016,0,1,1,1.03,1h-.014a1.008,1.008,0,0,1-1.016-1Z" transform="translate(-5900.094 -5384.473)"/><path class="a" d="M5900.094,5404.862a1.016,1.016,0,1,1,1.03,1h-.014a1.009,1.009,0,0,1-1.016-1Z" transform="translate(-5900.094 -5277.665)"/><path class="a" d="M5900.094,5284.033a1.016,1.016,0,1,1,1.03,1h-.014a1.008,1.008,0,0,1-1.016-1Z" transform="translate(-5900.094 -5170.857)"/><path class="a" d="M5900.094,5163.2a1.016,1.016,0,1,1,1.03,1h-.014a1.009,1.009,0,0,1-1.016-1Z" transform="translate(-5900.094 -5064.05)"/><path class="a" d="M5900.095,5042.511a1.015,1.015,0,1,1,1.014,1.016,1.016,1.016,0,0,1-1.014-1.016Z" transform="translate(-5900.093 -4957.414)"/><path class="a" d="M5900.094,4921.547a1.016,1.016,0,1,1,1.03,1h-.014a1.009,1.009,0,0,1-1.016-1Z" transform="translate(-5900.094 -4850.435)"/><path class="a" d="M5900.094,4800.718a1.016,1.016,0,1,1,1.03,1h-.014a1.008,1.008,0,0,1-1.016-1Z" transform="translate(-5900.094 -4743.627)"/><path class="a" d="M5900.095,4680.025a1.015,1.015,0,1,1,1.014,1.016,1.016,1.016,0,0,1-1.014-1.016Z" transform="translate(-5900.093 -4636.991)"/><path class="a" d="M5900.094,4559.061a1.016,1.016,0,1,1,1.03,1h-.014a1.009,1.009,0,0,1-1.016-1Z" transform="translate(-5900.094 -4530.012)"/><path class="a" d="M5900.094,4438.232a1.016,1.016,0,1,1,1.03,1h-.014a1.009,1.009,0,0,1-1.016-1Z" transform="translate(-5900.094 -4423.204)"/><path class="a" d="M5900.095,4317.539a1.015,1.015,0,1,1,1.014,1.016,1.016,1.016,0,0,1-1.014-1.016Z" transform="translate(-5900.093 -4316.568)"/></g><g transform="translate(3979.917 4316.568)"><path class="a" d="M5773.293,5525.691a1.016,1.016,0,1,1,1.03,1h-.014a1.009,1.009,0,0,1-1.016-1Z" transform="translate(-5773.293 -5384.473)"/><path class="a" d="M5773.293,5404.862a1.016,1.016,0,1,1,1.03,1h-.014a1.009,1.009,0,0,1-1.016-1Z" transform="translate(-5773.293 -5277.665)"/><path class="a" d="M5773.293,5284.033a1.016,1.016,0,1,1,1.03,1h-.014a1.009,1.009,0,0,1-1.016-1Z" transform="translate(-5773.293 -5170.857)"/><path class="a" d="M5773.293,5163.2a1.016,1.016,0,1,1,1.03,1h-.014a1.009,1.009,0,0,1-1.016-1Z" transform="translate(-5773.293 -5064.05)"/><path class="a" d="M5773.295,5042.511a1.015,1.015,0,1,1,1.014,1.016,1.016,1.016,0,0,1-1.014-1.016Z" transform="translate(-5773.293 -4957.414)"/><path class="a" d="M5773.293,4921.547a1.016,1.016,0,1,1,1.03,1h-.014a1.009,1.009,0,0,1-1.016-1Z" transform="translate(-5773.293 -4850.435)"/><path class="a" d="M5773.293,4800.718a1.016,1.016,0,1,1,1.03,1h-.014a1.009,1.009,0,0,1-1.016-1Z" transform="translate(-5773.293 -4743.627)"/><path class="a" d="M5773.295,4680.025a1.015,1.015,0,1,1,1.014,1.016,1.016,1.016,0,0,1-1.014-1.016Z" transform="translate(-5773.293 -4636.991)"/><path class="a" d="M5773.293,4559.061a1.016,1.016,0,1,1,1.03,1h-.014a1.009,1.009,0,0,1-1.016-1Z" transform="translate(-5773.293 -4530.012)"/><path class="a" d="M5773.293,4438.232a1.016,1.016,0,1,1,1.03,1h-.014a1.009,1.009,0,0,1-1.016-1Z" transform="translate(-5773.293 -4423.204)"/><path class="a" d="M5773.295,4317.539a1.015,1.015,0,1,1,1.014,1.016,1.016,1.016,0,0,1-1.014-1.016Z" transform="translate(-5773.293 -4316.568)"/></g><g transform="translate(3965.203 4316.568)"><path class="a" d="M5646.493,5525.691a1.016,1.016,0,1,1,1.03,1h-.014a1.008,1.008,0,0,1-1.016-1Z" transform="translate(-5646.493 -5384.473)"/><path class="a" d="M5646.493,5404.862a1.016,1.016,0,1,1,1.03,1h-.014a1.009,1.009,0,0,1-1.016-1Z" transform="translate(-5646.493 -5277.665)"/><path class="a" d="M5646.493,5284.033a1.016,1.016,0,1,1,1.03,1h-.014a1.008,1.008,0,0,1-1.016-1Z" transform="translate(-5646.493 -5170.857)"/><path class="a" d="M5646.493,5163.2a1.016,1.016,0,1,1,1.03,1h-.014a1.009,1.009,0,0,1-1.016-1Z" transform="translate(-5646.493 -5064.05)"/><path class="a" d="M5646.5,5042.511a1.015,1.015,0,1,1,1.014,1.016,1.016,1.016,0,0,1-1.014-1.016Z" transform="translate(-5646.493 -4957.414)"/><path class="a" d="M5646.493,4921.547a1.016,1.016,0,1,1,1.03,1h-.014a1.009,1.009,0,0,1-1.016-1Z" transform="translate(-5646.493 -4850.435)"/><path class="a" d="M5646.493,4800.718a1.016,1.016,0,1,1,1.03,1h-.014a1.008,1.008,0,0,1-1.016-1Z" transform="translate(-5646.493 -4743.627)"/><path class="a" d="M5646.5,4680.025a1.015,1.015,0,1,1,1.014,1.016,1.016,1.016,0,0,1-1.014-1.016Z" transform="translate(-5646.493 -4636.991)"/><path class="a" d="M5646.493,4559.061a1.016,1.016,0,1,1,1.03,1h-.014a1.009,1.009,0,0,1-1.016-1Z" transform="translate(-5646.493 -4530.012)"/><path class="a" d="M5646.493,4438.232a1.016,1.016,0,1,1,1.03,1h-.014a1.009,1.009,0,0,1-1.016-1Z" transform="translate(-5646.493 -4423.204)"/><path class="a" d="M5646.5,4317.539a1.015,1.015,0,1,1,1.014,1.016,1.016,1.016,0,0,1-1.014-1.016Z" transform="translate(-5646.493 -4316.568)"/></g><g transform="translate(3950.489 4316.568)"><path class="a" d="M5519.693,5525.691a1.016,1.016,0,1,1,1.03,1h-.014a1.008,1.008,0,0,1-1.016-1Z" transform="translate(-5519.693 -5384.473)"/><path class="a" d="M5519.693,5404.862a1.016,1.016,0,1,1,1.03,1h-.014a1.009,1.009,0,0,1-1.016-1Z" transform="translate(-5519.693 -5277.665)"/><path class="a" d="M5519.693,5284.033a1.016,1.016,0,1,1,1.03,1h-.014a1.008,1.008,0,0,1-1.016-1Z" transform="translate(-5519.693 -5170.857)"/><path class="a" d="M5519.693,5163.2a1.016,1.016,0,1,1,1.03,1h-.014a1.009,1.009,0,0,1-1.016-1Z" transform="translate(-5519.693 -5064.05)"/><path class="a" d="M5519.695,5042.511a1.015,1.015,0,1,1,1.014,1.016,1.016,1.016,0,0,1-1.014-1.016Z" transform="translate(-5519.693 -4957.414)"/><path class="a" d="M5519.693,4921.547a1.016,1.016,0,1,1,1.03,1h-.014a1.009,1.009,0,0,1-1.016-1Z" transform="translate(-5519.693 -4850.435)"/><path class="a" d="M5519.693,4800.718a1.016,1.016,0,1,1,1.03,1h-.014a1.008,1.008,0,0,1-1.016-1Z" transform="translate(-5519.693 -4743.627)"/><path class="a" d="M5519.695,4680.025a1.015,1.015,0,1,1,1.014,1.016,1.016,1.016,0,0,1-1.014-1.016Z" transform="translate(-5519.693 -4636.991)"/><path class="a" d="M5519.693,4559.061a1.016,1.016,0,1,1,1.03,1h-.014a1.009,1.009,0,0,1-1.016-1Z" transform="translate(-5519.693 -4530.012)"/><path class="a" d="M5519.693,4438.232a1.016,1.016,0,1,1,1.03,1h-.014a1.009,1.009,0,0,1-1.016-1Z" transform="translate(-5519.693 -4423.204)"/><path class="a" d="M5519.695,4317.539a1.015,1.015,0,1,1,1.014,1.016,1.016,1.016,0,0,1-1.014-1.016Z" transform="translate(-5519.693 -4316.568)"/></g><g transform="translate(3935.775 4316.568)"><path class="a" d="M5392.893,5525.691a1.016,1.016,0,1,1,1.03,1h-.014a1.009,1.009,0,0,1-1.016-1Z" transform="translate(-5392.893 -5384.473)"/><path class="a" d="M5392.893,5404.862a1.016,1.016,0,1,1,1.03,1h-.014a1.009,1.009,0,0,1-1.016-1Z" transform="translate(-5392.893 -5277.665)"/><path class="a" d="M5392.893,5284.033a1.016,1.016,0,1,1,1.03,1h-.014a1.008,1.008,0,0,1-1.016-1Z" transform="translate(-5392.893 -5170.857)"/><path class="a" d="M5392.893,5163.2a1.016,1.016,0,1,1,1.03,1h-.014a1.009,1.009,0,0,1-1.016-1Z" transform="translate(-5392.893 -5064.05)"/><path class="a" d="M5392.9,5042.511a1.015,1.015,0,1,1,1.014,1.016,1.016,1.016,0,0,1-1.014-1.016Z" transform="translate(-5392.893 -4957.414)"/><path class="a" d="M5392.893,4921.547a1.016,1.016,0,1,1,1.03,1h-.014a1.009,1.009,0,0,1-1.016-1Z" transform="translate(-5392.893 -4850.435)"/><path class="a" d="M5392.893,4800.718a1.016,1.016,0,1,1,1.03,1h-.014a1.009,1.009,0,0,1-1.016-1Z" transform="translate(-5392.893 -4743.627)"/><path class="a" d="M5392.9,4680.025a1.015,1.015,0,1,1,1.014,1.016,1.016,1.016,0,0,1-1.014-1.016Z" transform="translate(-5392.893 -4636.991)"/><path class="a" d="M5392.893,4559.061a1.016,1.016,0,1,1,1.03,1h-.014a1.009,1.009,0,0,1-1.016-1Z" transform="translate(-5392.893 -4530.012)"/><path class="a" d="M5392.893,4438.232a1.016,1.016,0,1,1,1.03,1h-.014a1.009,1.009,0,0,1-1.016-1Z" transform="translate(-5392.893 -4423.204)"/><path class="a" d="M5392.9,4317.539a1.015,1.015,0,1,1,1.014,1.016,1.016,1.016,0,0,1-1.014-1.016Z" transform="translate(-5392.893 -4316.568)"/></g><g transform="translate(3921.061 4316.568)"><path class="a" d="M5266.094,5525.691a1.016,1.016,0,1,1,1.029,1h-.014a1.008,1.008,0,0,1-1.016-1Z" transform="translate(-5266.094 -5384.473)"/><path class="a" d="M5266.094,5404.862a1.016,1.016,0,1,1,1.029,1h-.014a1.009,1.009,0,0,1-1.016-1Z" transform="translate(-5266.094 -5277.665)"/><path class="a" d="M5266.094,5284.033a1.016,1.016,0,1,1,1.029,1h-.014a1.008,1.008,0,0,1-1.016-1Z" transform="translate(-5266.094 -5170.857)"/><path class="a" d="M5266.094,5163.2a1.016,1.016,0,1,1,1.029,1h-.014a1.009,1.009,0,0,1-1.016-1Z" transform="translate(-5266.094 -5064.05)"/><path class="a" d="M5266.095,5042.511a1.015,1.015,0,1,1,1.014,1.016,1.016,1.016,0,0,1-1.014-1.016Z" transform="translate(-5266.093 -4957.414)"/><path class="a" d="M5266.094,4921.547a1.016,1.016,0,1,1,1.029,1h-.014a1.008,1.008,0,0,1-1.016-1Z" transform="translate(-5266.094 -4850.435)"/><path class="a" d="M5266.094,4800.718a1.016,1.016,0,1,1,1.029,1h-.014a1.008,1.008,0,0,1-1.016-1Z" transform="translate(-5266.094 -4743.627)"/><path class="a" d="M5266.095,4680.025a1.015,1.015,0,1,1,1.014,1.016,1.016,1.016,0,0,1-1.014-1.016Z" transform="translate(-5266.093 -4636.991)"/><path class="a" d="M5266.094,4559.061a1.016,1.016,0,1,1,1.029,1h-.014a1.008,1.008,0,0,1-1.016-1Z" transform="translate(-5266.094 -4530.012)"/><path class="a" d="M5266.094,4438.232a1.016,1.016,0,1,1,1.029,1h-.014a1.008,1.008,0,0,1-1.016-1Z" transform="translate(-5266.094 -4423.204)"/><path class="a" d="M5266.095,4317.539a1.015,1.015,0,1,1,1.014,1.016,1.016,1.016,0,0,1-1.014-1.016Z" transform="translate(-5266.093 -4316.568)"/></g><g transform="translate(3906.347 4316.568)"><path class="a" d="M5139.293,5525.691a1.016,1.016,0,1,1,1.029,1h-.014a1.008,1.008,0,0,1-1.016-1Z" transform="translate(-5139.293 -5384.473)"/><path class="a" d="M5139.293,5404.862a1.016,1.016,0,1,1,1.029,1h-.014a1.009,1.009,0,0,1-1.016-1Z" transform="translate(-5139.293 -5277.665)"/><path class="a" d="M5139.293,5284.033a1.016,1.016,0,1,1,1.029,1h-.014a1.008,1.008,0,0,1-1.016-1Z" transform="translate(-5139.293 -5170.857)"/><path class="a" d="M5139.293,5163.2a1.016,1.016,0,1,1,1.029,1h-.014a1.009,1.009,0,0,1-1.016-1Z" transform="translate(-5139.293 -5064.05)"/><path class="a" d="M5139.295,5042.511a1.015,1.015,0,1,1,1.014,1.016,1.016,1.016,0,0,1-1.014-1.016Z" transform="translate(-5139.293 -4957.414)"/><path class="a" d="M5139.293,4921.547a1.016,1.016,0,1,1,1.029,1h-.014a1.008,1.008,0,0,1-1.016-1Z" transform="translate(-5139.293 -4850.435)"/><path class="a" d="M5139.293,4800.718a1.016,1.016,0,1,1,1.029,1h-.014a1.008,1.008,0,0,1-1.016-1Z" transform="translate(-5139.293 -4743.627)"/><path class="a" d="M5139.295,4680.025a1.015,1.015,0,1,1,1.014,1.016,1.016,1.016,0,0,1-1.014-1.016Z" transform="translate(-5139.293 -4636.991)"/><path class="a" d="M5139.293,4559.061a1.016,1.016,0,1,1,1.029,1h-.014a1.008,1.008,0,0,1-1.016-1Z" transform="translate(-5139.293 -4530.012)"/><path class="a" d="M5139.293,4438.232a1.016,1.016,0,1,1,1.029,1h-.014a1.008,1.008,0,0,1-1.016-1Z" transform="translate(-5139.293 -4423.204)"/><path class="a" d="M5139.295,4317.539a1.015,1.015,0,1,1,1.014,1.016,1.016,1.016,0,0,1-1.014-1.016Z" transform="translate(-5139.293 -4316.568)"/></g><g transform="translate(3891.633 4316.568)"><path class="a" d="M5012.493,5525.691a1.016,1.016,0,1,1,1.03,1h-.014a1.009,1.009,0,0,1-1.016-1Z" transform="translate(-5012.493 -5384.473)"/><path class="a" d="M5012.493,5404.862a1.016,1.016,0,1,1,1.03,1h-.014a1.009,1.009,0,0,1-1.016-1Z" transform="translate(-5012.493 -5277.665)"/><path class="a" d="M5012.493,5284.033a1.016,1.016,0,1,1,1.03,1h-.014a1.009,1.009,0,0,1-1.016-1Z" transform="translate(-5012.493 -5170.857)"/><path class="a" d="M5012.493,5163.2a1.016,1.016,0,1,1,1.03,1h-.014a1.009,1.009,0,0,1-1.016-1Z" transform="translate(-5012.493 -5064.05)"/><path class="a" d="M5012.5,5042.511a1.015,1.015,0,1,1,1.014,1.016,1.016,1.016,0,0,1-1.014-1.016Z" transform="translate(-5012.493 -4957.414)"/><path class="a" d="M5012.493,4921.547a1.016,1.016,0,1,1,1.03,1h-.014a1.009,1.009,0,0,1-1.016-1Z" transform="translate(-5012.493 -4850.435)"/><path class="a" d="M5012.493,4800.718a1.016,1.016,0,1,1,1.03,1h-.014a1.009,1.009,0,0,1-1.016-1Z" transform="translate(-5012.493 -4743.627)"/><path class="a" d="M5012.5,4680.025a1.015,1.015,0,1,1,1.014,1.016,1.016,1.016,0,0,1-1.014-1.016Z" transform="translate(-5012.493 -4636.991)"/><path class="a" d="M5012.493,4559.061a1.016,1.016,0,1,1,1.03,1h-.014a1.009,1.009,0,0,1-1.016-1Z" transform="translate(-5012.493 -4530.012)"/><path class="a" d="M5012.493,4438.232a1.016,1.016,0,1,1,1.03,1h-.014a1.009,1.009,0,0,1-1.016-1Z" transform="translate(-5012.493 -4423.204)"/><path class="a" d="M5012.5,4317.539a1.015,1.015,0,1,1,1.014,1.016,1.016,1.016,0,0,1-1.014-1.016Z" transform="translate(-5012.493 -4316.568)"/></g><g transform="translate(3876.919 4316.568)"><path class="a" d="M4885.693,5525.691a1.016,1.016,0,1,1,1.03,1h-.014a1.008,1.008,0,0,1-1.016-1Z" transform="translate(-4885.693 -5384.473)"/><path class="a" d="M4885.693,5404.862a1.016,1.016,0,1,1,1.03,1h-.014a1.009,1.009,0,0,1-1.016-1Z" transform="translate(-4885.693 -5277.665)"/><path class="a" d="M4885.693,5284.033a1.016,1.016,0,1,1,1.03,1h-.014a1.008,1.008,0,0,1-1.016-1Z" transform="translate(-4885.693 -5170.857)"/><path class="a" d="M4885.693,5163.2a1.016,1.016,0,1,1,1.03,1h-.014a1.009,1.009,0,0,1-1.016-1Z" transform="translate(-4885.693 -5064.05)"/><path class="a" d="M4885.7,5042.511a1.014,1.014,0,1,1,1.014,1.016,1.016,1.016,0,0,1-1.014-1.016Z" transform="translate(-4885.693 -4957.414)"/><path class="a" d="M4885.693,4921.547a1.016,1.016,0,1,1,1.03,1h-.014a1.009,1.009,0,0,1-1.016-1Z" transform="translate(-4885.693 -4850.435)"/><path class="a" d="M4885.693,4800.718a1.016,1.016,0,1,1,1.03,1h-.014a1.008,1.008,0,0,1-1.016-1Z" transform="translate(-4885.693 -4743.627)"/><path class="a" d="M4885.7,4680.025a1.014,1.014,0,1,1,1.014,1.016,1.016,1.016,0,0,1-1.014-1.016Z" transform="translate(-4885.693 -4636.991)"/><path class="a" d="M4885.693,4559.061a1.016,1.016,0,1,1,1.03,1h-.014a1.009,1.009,0,0,1-1.016-1Z" transform="translate(-4885.693 -4530.012)"/><path class="a" d="M4885.693,4438.232a1.016,1.016,0,1,1,1.03,1h-.014a1.009,1.009,0,0,1-1.016-1Z" transform="translate(-4885.693 -4423.204)"/><path class="a" d="M4885.7,4317.539a1.014,1.014,0,1,1,1.014,1.016,1.015,1.015,0,0,1-1.014-1.016Z" transform="translate(-4885.693 -4316.568)"/></g><g transform="translate(3862.205 4316.568)"><path class="a" d="M4758.894,5525.691a1.016,1.016,0,1,1,1.03,1h-.014a1.008,1.008,0,0,1-1.016-1Z" transform="translate(-4758.894 -5384.473)"/><path class="a" d="M4758.894,5404.862a1.016,1.016,0,1,1,1.03,1h-.014a1.009,1.009,0,0,1-1.016-1Z" transform="translate(-4758.894 -5277.665)"/><path class="a" d="M4758.894,5284.033a1.016,1.016,0,1,1,1.03,1h-.014a1.008,1.008,0,0,1-1.016-1Z" transform="translate(-4758.894 -5170.857)"/><path class="a" d="M4758.894,5163.2a1.016,1.016,0,1,1,1.03,1h-.014a1.009,1.009,0,0,1-1.016-1Z" transform="translate(-4758.894 -5064.05)"/><path class="a" d="M4758.9,5042.511a1.015,1.015,0,1,1,1.013,1.016,1.015,1.015,0,0,1-1.013-1.016Z" transform="translate(-4758.893 -4957.414)"/><path class="a" d="M4758.894,4921.547a1.016,1.016,0,1,1,1.03,1h-.014a1.009,1.009,0,0,1-1.016-1Z" transform="translate(-4758.894 -4850.435)"/><path class="a" d="M4758.894,4800.718a1.016,1.016,0,1,1,1.03,1h-.014a1.008,1.008,0,0,1-1.016-1Z" transform="translate(-4758.894 -4743.627)"/><path class="a" d="M4758.9,4680.025a1.015,1.015,0,1,1,1.013,1.016,1.015,1.015,0,0,1-1.013-1.016Z" transform="translate(-4758.893 -4636.991)"/><path class="a" d="M4758.894,4559.061a1.016,1.016,0,1,1,1.03,1h-.014a1.009,1.009,0,0,1-1.016-1Z" transform="translate(-4758.894 -4530.012)"/><path class="a" d="M4758.894,4438.232a1.016,1.016,0,1,1,1.03,1h-.014a1.009,1.009,0,0,1-1.016-1Z" transform="translate(-4758.894 -4423.204)"/><path class="a" d="M4758.9,4317.539a1.015,1.015,0,1,1,1.013,1.016,1.015,1.015,0,0,1-1.013-1.016Z" transform="translate(-4758.893 -4316.568)"/></g><g transform="translate(3847.491 4316.568)"><path class="a" d="M4632.094,5525.691a1.016,1.016,0,1,1,1.029,1h-.014a1.008,1.008,0,0,1-1.016-1Z" transform="translate(-4632.094 -5384.473)"/><path class="a" d="M4632.094,5404.862a1.016,1.016,0,1,1,1.029,1h-.014a1.009,1.009,0,0,1-1.016-1Z" transform="translate(-4632.094 -5277.665)"/><path class="a" d="M4632.094,5284.033a1.016,1.016,0,1,1,1.029,1h-.014a1.008,1.008,0,0,1-1.016-1Z" transform="translate(-4632.094 -5170.857)"/><path class="a" d="M4632.094,5163.2a1.016,1.016,0,1,1,1.029,1h-.014a1.009,1.009,0,0,1-1.016-1Z" transform="translate(-4632.094 -5064.05)"/><path class="a" d="M4632.095,5042.511a1.015,1.015,0,1,1,1.014,1.016,1.016,1.016,0,0,1-1.014-1.016Z" transform="translate(-4632.093 -4957.414)"/><path class="a" d="M4632.094,4921.547a1.016,1.016,0,1,1,1.029,1h-.014a1.008,1.008,0,0,1-1.016-1Z" transform="translate(-4632.094 -4850.435)"/><path class="a" d="M4632.094,4800.718a1.016,1.016,0,1,1,1.029,1h-.014a1.008,1.008,0,0,1-1.016-1Z" transform="translate(-4632.094 -4743.627)"/><path class="a" d="M4632.095,4680.025a1.015,1.015,0,1,1,1.014,1.016,1.016,1.016,0,0,1-1.014-1.016Z" transform="translate(-4632.093 -4636.991)"/><path class="a" d="M4632.094,4559.061a1.016,1.016,0,1,1,1.029,1h-.014a1.008,1.008,0,0,1-1.016-1Z" transform="translate(-4632.094 -4530.012)"/><path class="a" d="M4632.094,4438.232a1.016,1.016,0,1,1,1.029,1h-.014a1.008,1.008,0,0,1-1.016-1Z" transform="translate(-4632.094 -4423.204)"/><path class="a" d="M4632.095,4317.539a1.015,1.015,0,1,1,1.014,1.016,1.016,1.016,0,0,1-1.014-1.016Z" transform="translate(-4632.093 -4316.568)"/></g><g transform="translate(3832.777 4316.568)"><path class="a" d="M4505.293,5525.691a1.016,1.016,0,1,1,1.03,1h-.014a1.009,1.009,0,0,1-1.016-1Z" transform="translate(-4505.293 -5384.473)"/><path class="a" d="M4505.293,5404.862a1.016,1.016,0,1,1,1.03,1h-.014a1.009,1.009,0,0,1-1.016-1Z" transform="translate(-4505.293 -5277.665)"/><path class="a" d="M4505.293,5284.033a1.016,1.016,0,1,1,1.03,1h-.014a1.008,1.008,0,0,1-1.016-1Z" transform="translate(-4505.293 -5170.857)"/><path class="a" d="M4505.293,5163.2a1.016,1.016,0,1,1,1.03,1h-.014a1.009,1.009,0,0,1-1.016-1Z" transform="translate(-4505.293 -5064.05)"/><path class="a" d="M4505.295,5042.511a1.015,1.015,0,1,1,1.014,1.016,1.016,1.016,0,0,1-1.014-1.016Z" transform="translate(-4505.293 -4957.414)"/><path class="a" d="M4505.293,4921.547a1.016,1.016,0,1,1,1.03,1h-.014a1.009,1.009,0,0,1-1.016-1Z" transform="translate(-4505.293 -4850.435)"/><path class="a" d="M4505.293,4800.718a1.016,1.016,0,1,1,1.03,1h-.014a1.009,1.009,0,0,1-1.016-1Z" transform="translate(-4505.293 -4743.627)"/><path class="a" d="M4505.295,4680.025a1.015,1.015,0,1,1,1.014,1.016,1.016,1.016,0,0,1-1.014-1.016Z" transform="translate(-4505.293 -4636.991)"/><path class="a" d="M4505.293,4559.061a1.016,1.016,0,1,1,1.03,1h-.014a1.009,1.009,0,0,1-1.016-1Z" transform="translate(-4505.293 -4530.012)"/><path class="a" d="M4505.293,4438.232a1.016,1.016,0,1,1,1.03,1h-.014a1.009,1.009,0,0,1-1.016-1Z" transform="translate(-4505.293 -4423.204)"/><path class="a" d="M4505.295,4317.539a1.015,1.015,0,1,1,1.014,1.016,1.016,1.016,0,0,1-1.014-1.016Z" transform="translate(-4505.293 -4316.568)"/></g><g transform="translate(3818.063 4316.568)"><path class="a" d="M4378.493,5525.691a1.016,1.016,0,1,1,1.029,1h-.014a1.008,1.008,0,0,1-1.016-1Z" transform="translate(-4378.493 -5384.473)"/><path class="a" d="M4378.493,5404.862a1.016,1.016,0,1,1,1.029,1h-.014a1.009,1.009,0,0,1-1.016-1Z" transform="translate(-4378.493 -5277.665)"/><path class="a" d="M4378.493,5284.033a1.016,1.016,0,1,1,1.029,1h-.014a1.008,1.008,0,0,1-1.016-1Z" transform="translate(-4378.493 -5170.857)"/><path class="a" d="M4378.493,5163.2a1.016,1.016,0,1,1,1.029,1h-.014a1.009,1.009,0,0,1-1.016-1Z" transform="translate(-4378.493 -5064.05)"/><path class="a" d="M4378.5,5042.511a1.015,1.015,0,1,1,1.014,1.016,1.016,1.016,0,0,1-1.014-1.016Z" transform="translate(-4378.493 -4957.414)"/><path class="a" d="M4378.493,4921.547a1.016,1.016,0,1,1,1.029,1h-.014a1.009,1.009,0,0,1-1.016-1Z" transform="translate(-4378.493 -4850.435)"/><path class="a" d="M4378.493,4800.718a1.016,1.016,0,1,1,1.029,1h-.014a1.008,1.008,0,0,1-1.016-1Z" transform="translate(-4378.493 -4743.627)"/><path class="a" d="M4378.5,4680.025a1.015,1.015,0,1,1,1.014,1.016,1.016,1.016,0,0,1-1.014-1.016Z" transform="translate(-4378.493 -4636.991)"/><path class="a" d="M4378.493,4559.061a1.016,1.016,0,1,1,1.029,1h-.014a1.009,1.009,0,0,1-1.016-1Z" transform="translate(-4378.493 -4530.012)"/><path class="a" d="M4378.493,4438.232a1.016,1.016,0,1,1,1.029,1h-.014a1.009,1.009,0,0,1-1.016-1Z" transform="translate(-4378.493 -4423.204)"/><path class="a" d="M4378.5,4317.539a1.015,1.015,0,1,1,1.014,1.016,1.016,1.016,0,0,1-1.014-1.016Z" transform="translate(-4378.493 -4316.568)"/></g><g transform="translate(3803.349 4316.568)"><path class="a" d="M4251.693,5525.691a1.016,1.016,0,1,1,1.03,1h-.014a1.009,1.009,0,0,1-1.016-1Z" transform="translate(-4251.693 -5384.473)"/><path class="a" d="M4251.693,5404.862a1.016,1.016,0,1,1,1.03,1h-.014a1.009,1.009,0,0,1-1.016-1Z" transform="translate(-4251.693 -5277.665)"/><path class="a" d="M4251.693,5284.033a1.016,1.016,0,1,1,1.03,1h-.014a1.008,1.008,0,0,1-1.016-1Z" transform="translate(-4251.693 -5170.857)"/><path class="a" d="M4251.693,5163.2a1.016,1.016,0,1,1,1.03,1h-.014a1.009,1.009,0,0,1-1.016-1Z" transform="translate(-4251.693 -5064.05)"/><path class="a" d="M4251.695,5042.511a1.015,1.015,0,1,1,1.014,1.016,1.016,1.016,0,0,1-1.014-1.016Z" transform="translate(-4251.693 -4957.414)"/><path class="a" d="M4251.693,4921.547a1.016,1.016,0,1,1,1.03,1h-.014a1.009,1.009,0,0,1-1.016-1Z" transform="translate(-4251.693 -4850.435)"/><path class="a" d="M4251.693,4800.718a1.016,1.016,0,1,1,1.03,1h-.014a1.009,1.009,0,0,1-1.016-1Z" transform="translate(-4251.693 -4743.627)"/><path class="a" d="M4251.695,4680.025a1.015,1.015,0,1,1,1.014,1.016,1.016,1.016,0,0,1-1.014-1.016Z" transform="translate(-4251.693 -4636.991)"/><path class="a" d="M4251.693,4559.061a1.016,1.016,0,1,1,1.03,1h-.014a1.009,1.009,0,0,1-1.016-1Z" transform="translate(-4251.693 -4530.012)"/><path class="a" d="M4251.693,4438.232a1.016,1.016,0,1,1,1.03,1h-.014a1.009,1.009,0,0,1-1.016-1Z" transform="translate(-4251.693 -4423.204)"/><path class="a" d="M4251.695,4317.539a1.015,1.015,0,1,1,1.014,1.016,1.016,1.016,0,0,1-1.014-1.016Z" transform="translate(-4251.693 -4316.568)"/></g><g transform="translate(3788.635 4316.568)"><path class="a" d="M4124.894,5525.691a1.016,1.016,0,1,1,1.03,1h-.014a1.008,1.008,0,0,1-1.016-1Z" transform="translate(-4124.894 -5384.473)"/><path class="a" d="M4124.894,5404.862a1.016,1.016,0,1,1,1.03,1h-.014a1.009,1.009,0,0,1-1.016-1Z" transform="translate(-4124.894 -5277.665)"/><path class="a" d="M4124.894,5284.033a1.016,1.016,0,1,1,1.03,1h-.014a1.008,1.008,0,0,1-1.016-1Z" transform="translate(-4124.894 -5170.857)"/><path class="a" d="M4124.894,5163.2a1.016,1.016,0,1,1,1.03,1h-.014a1.009,1.009,0,0,1-1.016-1Z" transform="translate(-4124.894 -5064.05)"/><path class="a" d="M4124.9,5042.511a1.015,1.015,0,1,1,1.014,1.016,1.016,1.016,0,0,1-1.014-1.016Z" transform="translate(-4124.893 -4957.414)"/><path class="a" d="M4124.894,4921.547a1.016,1.016,0,1,1,1.03,1h-.014a1.009,1.009,0,0,1-1.016-1Z" transform="translate(-4124.894 -4850.435)"/><path class="a" d="M4124.894,4800.718a1.016,1.016,0,1,1,1.03,1h-.014a1.008,1.008,0,0,1-1.016-1Z" transform="translate(-4124.894 -4743.627)"/><path class="a" d="M4124.9,4680.025a1.015,1.015,0,1,1,1.014,1.016,1.016,1.016,0,0,1-1.014-1.016Z" transform="translate(-4124.893 -4636.991)"/><path class="a" d="M4124.894,4559.061a1.016,1.016,0,1,1,1.03,1h-.014a1.009,1.009,0,0,1-1.016-1Z" transform="translate(-4124.894 -4530.012)"/><path class="a" d="M4124.894,4438.232a1.016,1.016,0,1,1,1.03,1h-.014a1.009,1.009,0,0,1-1.016-1Z" transform="translate(-4124.894 -4423.204)"/><path class="a" d="M4124.9,4317.539a1.015,1.015,0,1,1,1.014,1.016,1.015,1.015,0,0,1-1.014-1.016Z" transform="translate(-4124.893 -4316.568)"/></g><g transform="translate(3773.921 4316.568)"><path class="a" d="M3998.093,5646.52a1.016,1.016,0,1,1,1.03,1h-.014a1.008,1.008,0,0,1-1.016-1Z" transform="translate(-3998.093 -5491.281)"/><path class="a" d="M3998.093,5525.691a1.016,1.016,0,1,1,1.03,1h-.014a1.008,1.008,0,0,1-1.016-1Z" transform="translate(-3998.093 -5384.473)"/><path class="a" d="M3998.093,5404.862a1.016,1.016,0,1,1,1.03,1h-.014a1.009,1.009,0,0,1-1.016-1Z" transform="translate(-3998.093 -5277.665)"/><path class="a" d="M3998.093,5284.033a1.016,1.016,0,1,1,1.03,1h-.014a1.008,1.008,0,0,1-1.016-1Z" transform="translate(-3998.093 -5170.857)"/><path class="a" d="M3998.093,5163.2a1.016,1.016,0,1,1,1.03,1h-.014a1.009,1.009,0,0,1-1.016-1Z" transform="translate(-3998.093 -5064.05)"/><path class="a" d="M3998.095,5042.511a1.015,1.015,0,1,1,1.014,1.016,1.016,1.016,0,0,1-1.014-1.016Z" transform="translate(-3998.093 -4957.414)"/><path class="a" d="M3998.093,4921.547a1.016,1.016,0,1,1,1.03,1h-.014a1.008,1.008,0,0,1-1.016-1Z" transform="translate(-3998.093 -4850.435)"/><path class="a" d="M3998.093,4800.718a1.016,1.016,0,1,1,1.03,1h-.014a1.008,1.008,0,0,1-1.016-1Z" transform="translate(-3998.093 -4743.627)"/><path class="a" d="M3998.095,4680.025a1.015,1.015,0,1,1,1.014,1.016,1.016,1.016,0,0,1-1.014-1.016Z" transform="translate(-3998.093 -4636.991)"/><path class="a" d="M3998.093,4559.061a1.016,1.016,0,1,1,1.03,1h-.014a1.008,1.008,0,0,1-1.016-1Z" transform="translate(-3998.093 -4530.012)"/><path class="a" d="M3998.093,4438.232a1.016,1.016,0,1,1,1.03,1h-.014a1.009,1.009,0,0,1-1.016-1Z" transform="translate(-3998.093 -4423.204)"/><path class="a" d="M3998.095,4317.539a1.015,1.015,0,1,1,1.014,1.016,1.016,1.016,0,0,1-1.014-1.016Z" transform="translate(-3998.093 -4316.568)"/></g><g transform="translate(3759.207 4316.568)"><path class="a" d="M3871.293,5646.52a1.016,1.016,0,1,1,1.03,1h-.014a1.008,1.008,0,0,1-1.016-1Z" transform="translate(-3871.293 -5491.281)"/><path class="a" d="M3871.293,5525.691a1.016,1.016,0,1,1,1.03,1h-.014a1.008,1.008,0,0,1-1.016-1Z" transform="translate(-3871.293 -5384.473)"/><path class="a" d="M3871.293,5404.862a1.016,1.016,0,1,1,1.03,1h-.014a1.009,1.009,0,0,1-1.016-1Z" transform="translate(-3871.293 -5277.665)"/><path class="a" d="M3871.293,5284.033a1.016,1.016,0,1,1,1.03,1h-.014a1.008,1.008,0,0,1-1.016-1Z" transform="translate(-3871.293 -5170.857)"/><path class="a" d="M3871.293,5163.2a1.016,1.016,0,1,1,1.03,1h-.014a1.009,1.009,0,0,1-1.016-1Z" transform="translate(-3871.293 -5064.05)"/><path class="a" d="M3871.295,5042.511a1.015,1.015,0,1,1,1.014,1.016,1.016,1.016,0,0,1-1.014-1.016Z" transform="translate(-3871.293 -4957.414)"/><path class="a" d="M3871.293,4921.547a1.016,1.016,0,1,1,1.03,1h-.014a1.008,1.008,0,0,1-1.016-1Z" transform="translate(-3871.293 -4850.435)"/><path class="a" d="M3871.293,4800.718a1.016,1.016,0,1,1,1.03,1h-.014a1.008,1.008,0,0,1-1.016-1Z" transform="translate(-3871.293 -4743.627)"/><path class="a" d="M3871.295,4680.025a1.015,1.015,0,1,1,1.014,1.016,1.016,1.016,0,0,1-1.014-1.016Z" transform="translate(-3871.293 -4636.991)"/><path class="a" d="M3871.293,4559.061a1.016,1.016,0,1,1,1.03,1h-.014a1.008,1.008,0,0,1-1.016-1Z" transform="translate(-3871.293 -4530.012)"/><path class="a" d="M3871.293,4438.232a1.016,1.016,0,1,1,1.03,1h-.014a1.009,1.009,0,0,1-1.016-1Z" transform="translate(-3871.293 -4423.204)"/><path class="a" d="M3871.295,4317.539a1.015,1.015,0,1,1,1.014,1.016,1.016,1.016,0,0,1-1.014-1.016Z" transform="translate(-3871.293 -4316.568)"/></g><g transform="translate(3744.493 4316.568)"><path class="a" d="M3744.493,5646.52a1.016,1.016,0,1,1,1.029,1h-.014a1.008,1.008,0,0,1-1.016-1Z" transform="translate(-3744.493 -5491.281)"/><path class="a" d="M3744.493,5525.691a1.016,1.016,0,1,1,1.029,1h-.014a1.008,1.008,0,0,1-1.016-1Z" transform="translate(-3744.493 -5384.473)"/><path class="a" d="M3744.493,5404.862a1.016,1.016,0,1,1,1.029,1h-.014a1.009,1.009,0,0,1-1.016-1Z" transform="translate(-3744.493 -5277.665)"/><path class="a" d="M3744.493,5284.033a1.016,1.016,0,1,1,1.029,1h-.014a1.008,1.008,0,0,1-1.016-1Z" transform="translate(-3744.493 -5170.857)"/><path class="a" d="M3744.493,5163.2a1.016,1.016,0,1,1,1.029,1h-.014a1.009,1.009,0,0,1-1.016-1Z" transform="translate(-3744.493 -5064.05)"/><path class="a" d="M3744.5,5042.511a1.015,1.015,0,1,1,1.014,1.016,1.016,1.016,0,0,1-1.014-1.016Z" transform="translate(-3744.493 -4957.414)"/><path class="a" d="M3744.493,4921.547a1.016,1.016,0,1,1,1.029,1h-.014a1.009,1.009,0,0,1-1.016-1Z" transform="translate(-3744.493 -4850.435)"/><path class="a" d="M3744.493,4800.718a1.016,1.016,0,1,1,1.029,1h-.014a1.008,1.008,0,0,1-1.016-1Z" transform="translate(-3744.493 -4743.627)"/><path class="a" d="M3744.5,4680.025a1.015,1.015,0,1,1,1.014,1.016,1.016,1.016,0,0,1-1.014-1.016Z" transform="translate(-3744.493 -4636.991)"/><path class="a" d="M3744.493,4559.061a1.016,1.016,0,1,1,1.029,1h-.014a1.009,1.009,0,0,1-1.016-1Z" transform="translate(-3744.493 -4530.012)"/><path class="a" d="M3744.493,4438.232a1.016,1.016,0,1,1,1.029,1h-.014a1.009,1.009,0,0,1-1.016-1Z" transform="translate(-3744.493 -4423.204)"/><path class="a" d="M3744.5,4317.539a1.015,1.015,0,1,1,1.014,1.016,1.016,1.016,0,0,1-1.014-1.016Z" transform="translate(-3744.493 -4316.568)"/></g></g><g transform="translate(-53.155 11.526)"><g transform="translate(129.155 313.969)"><path class="b" d="M.643,1H168.724" transform="translate(7.575 -1)"/><path class="b" d="M3.584,1H.079" transform="translate(-0.079 -1)"/><path class="b" d="M17.123,1H.079" transform="translate(183.597 -1)"/><path class="b" d="M3.584,1H.079" transform="translate(205.514 -1)"/></g><g transform="translate(135.082 176.599)"><g transform="translate(0 9.347)"><g transform="translate(80.283 20.01)"><g transform="translate(0 0)"><g transform="translate(0 0)"><g transform="translate(63.879) rotate(90)"><path class="c" d="M0,0V51.959H94.88a7.565,7.565,0,0,0,7.565-7.565V0Z" transform="translate(0 11.921)"/><path class="c" d="M.062.789c0,.437,0,.5,0,1.266,0,1.5-.01,3.17-.015,4.972C.029,12.174.017,17.331.01,22.159-.008,32.831,0,41.044.026,43.625c6.112-1.186,10.71-.213,13.682,2.954V3.788C10.239.113,5.736-.89.062.789Z" transform="translate(88.813 0)"/><g transform="translate(40.746 21.745)"><path class="d" d="M0,16.892a5.634,5.634,0,1,0,5.634-5.634v.01a5.634,5.634,0,1,1,5.634-5.634" transform="translate(0 3.957)"/><line class="d" y1="3.957" transform="translate(5.634 26.482)"/><line class="d" y1="3.957" transform="translate(5.634 0)"/></g><path class="e" d="M10.42,0H5.258V5.741H0V31.116H5.21l.048,6.554H10.42" transform="translate(9.138 18.928)"/></g></g></g></g><g transform="translate(0 53.385)"><path class="f" d="M13.253,124.857C8.9,122.432.98,114.838.5,110.028s22.183-7.608,22.183-7.608l9.838,4.9Z" transform="translate(-0.494 -73.346)"/><path class="f" d="M102.8,22.578S105.941-.042,110.742.515,123.017,9.1,125.377,13.489,110.742,28.46,110.742,28.46Z" transform="translate(-73.615 -0.505)"/><path class="f" d="M82.458,94.172A8.907,8.907,0,1,1,94.822,81.808" transform="translate(-56.268 -55.807)"/><path class="f" d="M219.34,84.46v36.18a4.122,4.122,0,0,0,4.122,4.122H295.2a4.122,4.122,0,0,0,4.122-4.122V67.87H231.176" transform="translate(-154.336 -50.368)"/><path class="f" d="M8.142,68.168l14.59,15.493L82.759,23.445,68.451,8.748Z" transform="translate(-6.108 -6.63)"/></g><g transform="translate(183.666 73)"><g transform="translate(2.814)"><path class="g" d="M.5.3V5.686" transform="translate(-0.5 -0.3)"/></g><g transform="translate(0 2.626) rotate(-90)"><path class="g" d="M0,0V5.628" transform="translate(0)"/></g></g><g transform="translate(159.367 89.908)"><path class="g" d="M.5.5V15.387" transform="translate(6.944 -0.5)"/><g transform="translate(0 7.444) rotate(-90)"><path class="g" d="M0,0V14.887" transform="translate(0)"/></g></g><g transform="translate(16.786 44.125)"><path class="g" d="M.5.5V8.936" transform="translate(3.718 -0.5)"/><g transform="translate(0 4.219) rotate(-90)"><path class="g" d="M0,0V8.436" transform="translate(0)"/></g></g><rect class="h" width="14.391" height="56.269" transform="translate(98.991 71.208)"/><g class="h" transform="translate(26.562 90.041) rotate(-45)"><rect class="m" width="14.372" height="22.282"/><rect class="n" x="1.5" y="1.5" width="11.372" height="19.282"/></g></g><g transform="matrix(0.985, 0.174, -0.174, 0.985, 35.521, 1)"><path class="f" d="M34.984,5.427,2.6,0,1.9,2.456.117,18.768a14.966,14.966,0,0,0,.669,6.658,20,20,0,0,0,2.746,4.89,15.07,15.07,0,0,0,11.593,5.389c7.616-.019,14.5-5.577,15.436-13.135l.453-1.952,1.7.206c.181.021-.182,0,0,0,2.231,0,3.072-1.279,3.345-3.5.065-1.287.3-3.559-3.353-4.444Z" transform="translate(3.74 17.6)"/><path class="i" d="M16.836,8.464l19.582,4.561a4.253,4.253,0,0,1,3.715,5.229l-3.094,12.4-1.948,1.444,1.376-4.461c.292-2.354-.44-4.216-2.85-4.674L5.4,19.469c-2.58-.319-4.752-3.445-5.285-7.6C-.4,7.861.746,2.539,5.473,0,7.491,2.912,9.715,5.973,14.1,7.719A12.682,12.682,0,0,0,16.836,8.464Z" transform="translate(0 0)"/><g transform="translate(11.495 37.649)"><g transform="translate(0 0)"><path class="j" d="M.006,2.746A5.186,5.186,0,0,0,4.938,8.173a5.559,5.559,0,0,0,6.3-4.373l.146-1.058a1.583,1.583,0,0,0-.4-1.274A2,2,0,0,0,9.692.818L2.327.014A2.108,2.108,0,0,0,.893.368,1.675,1.675,0,0,0,.16,1.518L.015,2.577C.01,2.631.007,2.687.006,2.746Z"/></g></g><g transform="translate(9.096 29.045)"><g transform="translate(0 0)"><path class="k" d="M5.255,1.437A3.748,3.748,0,0,0,0,.792" transform="translate(0 0)"/></g></g><g transform="translate(21.993 30.649)"><g transform="translate(0 0)"><path class="k" d="M5.256,1.437A3.749,3.749,0,0,0,0,.792" transform="translate(0 0)"/></g></g><path class="i" d="M11.854,14.51S6.067,10.658,7.268,5.12c0,0-2.082,4.59-1.62,6.635,0,0-4.911-6.217-3.866-11.755,0,0-4.1,9.167.143,13.282Z" transform="translate(4.099 6.264)"/><path class="j" d="M16.836,8.464l19.582,4.561a4.253,4.253,0,0,1,3.715,5.229l-3.094,12.4-1.948,1.444,1.376-4.461c.292-2.354-.44-4.216-2.85-4.674L5.4,19.469c-2.58-.319-4.752-3.445-5.285-7.6C-.4,7.861.746,2.539,5.473,0,7.491,2.912,9.715,5.973,14.1,7.719A12.682,12.682,0,0,0,16.836,8.464Z" transform="translate(0 0)"/></g><g transform="translate(146.832 22.932)"><path class="i" d="M1016.813,217.917a.476.476,0,0,0-.041-.156l-4.3-13.289-11.533-12.89,10.707-8.715c-10.469-15.775-23.985-6.126-23.985-6.126h0s-11.271-.137-9.7,19.166c.7,8.6,3.748,26.848,3.748,26.848l.026,0c.617,1.42,8.366,3.086,17.74,2.34C1009.173,224.32,1016.934,219.448,1016.813,217.917Z" transform="translate(-977.812 -173.556)"/><path class="d" d="M1009.056,179.518c-9.975-10.928-21.392-2.777-21.392-2.777h0s-11.271-.137-9.7,19.166c.7,8.6,3.748,26.848,3.748,26.848l.026,0c.617,1.42,8.366,3.086,17.74,2.34,9.7-.772,17.458-5.644,17.337-7.174a.477.477,0,0,0-.041-.156l-4.3-13.289" transform="translate(-977.812 -173.556)"/><path class="f" d="M1028.537,390.162c-3.49,1.145-3.115,2.909-2.953,4.157.437,2.138,1.356,3.317,3.527,3.144.177-.014-.174.035,0,0l1.4-.235c1.217,9.14,9.45,13.924,16.863,13.353a14.924,14.924,0,0,0,1.812-.253,14.692,14.692,0,0,0,9.051-5.889,19.519,19.519,0,0,0,2.294-4.971,14.619,14.619,0,0,0,.136-6.531l-2.4-12.6-4.234-5.053-18.342,3.8Z" transform="translate(-1023.439 -366.367)"/><g transform="translate(18.998 28.563)"><g transform="translate(0 0)"><path class="j" d="M1411.869,795.935l-.224-1.02a1.635,1.635,0,0,0-.8-1.063,2.061,2.061,0,0,0-1.422-.233l-7.105,1.353a1.945,1.945,0,0,0-1.209.733,1.549,1.549,0,0,0-.289,1.271l.226,1.018a5.424,5.424,0,0,0,6.467,3.767,5.062,5.062,0,0,0,4.38-5.663C1411.885,796.041,1411.877,795.987,1411.869,795.935Z" transform="translate(-1400.784 -793.581)"/></g></g><g transform="translate(26.563 20.016)"><path class="k" d="M1573.223,604.017a3.658,3.658,0,0,0-5.063,1.035" transform="translate(-1568.16 -603.413)"/></g><g transform="translate(14.136 22.576)"><g transform="translate(0)"><path class="k" d="M1297.114,661.977a3.659,3.659,0,0,0-5.064,1.035" transform="translate(-1292.05 -661.373)"/></g></g><path class="i" d="M1051.236,287.171s11.731,6.286,23.625,4.028c0,0-.551-8.115-6.077-12.529l-24.2,6.315-.92,2.83-2.673,6.823,4.526,5.008-.933-4.168S1047.483,296.9,1051.236,287.171Z" transform="translate(-1038.717 -273.905)"/><path class="d" d="M1048.9,277.359l3.748,3.165-.933-4.168s2.9,1.424,6.651-8.307c0,0,11.73,6.286,23.625,4.028,0,0-1.524-8.973-7.049-13.387" transform="translate(-1045.848 -254.783)"/><path class="g" d="M1586.07,167.7" transform="translate(-1559.953 -167.7)"/><path class="g" d="M1336.71,370.68" transform="translate(-1321.3 -361.965)"/><path class="g" d="M1336.71,370.68" transform="translate(-1321.3 -361.965)"/><path class="g" d="M1605.33,670.9" transform="translate(-1578.386 -649.294)"/></g></g></g><g transform="translate(131.852 196.543) rotate(-60)"><g transform="matrix(0.208, -0.978, 0.978, 0.208, 0, 71.086)"><path class="l" d="M0,21.684V0" transform="translate(0 66.451) rotate(180)"/><path class="l" d="M0,21.684V0" transform="translate(72.674 3.392) rotate(99)"/><path class="l" d="M0,30.357V0" transform="translate(52.127 50.66) rotate(137)"/><path class="l" d="M0,15.178V0" transform="matrix(-0.883, 0.469, -0.469, -0.883, 24.307, 54.225)"/><path class="l" d="M0,15.178V0" transform="translate(58.138 22.145) rotate(120)"/></g></g></g></svg>